<svg width="72" height="72" viewBox="0 0 72 72" fill="none" xmlns="http://www.w3.org/2000/svg">
<path d="M36 71C55.33 71 71 55.33 71 36C71 16.67 55.33 1 36 1C16.67 1 1 16.67 1 36C1 55.33 16.67 71 36 71Z" fill="#3B0336" stroke="black"/>
<path d="M36.2624 59.2461C49.2874 59.2461 59.8462 48.6872 59.8462 35.6622C59.8462 22.6373 49.2874 12.0784 36.2624 12.0784C23.2374 12.0784 12.6786 22.6373 12.6786 35.6622C12.6786 48.6872 23.2374 59.2461 36.2624 59.2461Z" fill="white" stroke="#541B4E" stroke-width="3"/>
<path d="M35.538 50.3676C43.2248 50.3676 49.4562 44.1362 49.4562 36.4494C49.4562 28.7627 43.2248 22.5313 35.538 22.5313C27.8512 22.5313 21.6199 28.7627 21.6199 36.4494C21.6199 44.1362 27.8512 50.3676 35.538 50.3676Z" fill="white" stroke="#541B4E" stroke-width="3"/>
<path d="M18.7051 29.9963C19.8341 29.9963 20.7493 29.0811 20.7493 27.9522C20.7493 26.8232 19.8341 25.908 18.7051 25.908C17.5761 25.908 16.6609 26.8232 16.6609 27.9522C16.6609 29.0811 17.5761 29.9963 18.7051 29.9963Z" fill="#33042E" stroke="#541B4E"/>
<path d="M17.1904 32.0358C18.3194 32.0358 19.2346 31.1206 19.2346 29.9917C19.2346 28.8627 18.3194 27.9475 17.1904 27.9475C16.0615 27.9475 15.1463 28.8627 15.1463 29.9917C15.1463 31.1206 16.0615 32.0358 17.1904 32.0358Z" fill="white" stroke="#541B4E"/>
<path d="M53.0716 46.0915C54.2006 46.0915 55.1158 45.1763 55.1158 44.0473C55.1158 42.9183 54.2006 42.0031 53.0716 42.0031C51.9426 42.0031 51.0274 42.9183 51.0274 44.0473C51.0274 45.1763 51.9426 46.0915 53.0716 46.0915Z" fill="white" stroke="#541B4E"/>
<path d="M51.1859 48.2652C52.3149 48.2652 53.2301 47.35 53.2301 46.221C53.2301 45.0921 52.3149 44.1769 51.1859 44.1769C50.0569 44.1769 49.1417 45.0921 49.1417 46.221C49.1417 47.35 50.0569 48.2652 51.1859 48.2652Z" fill="#33042E" stroke="#541B4E"/>
<path d="M33.0186 34.7273H34.7729V39.4184C34.7729 39.9605 34.6439 40.4328 34.3858 40.8353C34.1278 41.2354 33.7679 41.5455 33.3063 41.7657C32.8446 41.9835 32.3084 42.0924 31.6976 42.0924C31.0797 42.0924 30.54 41.9835 30.0783 41.7657C29.6167 41.5455 29.258 41.2354 29.0023 40.8353C28.7466 40.4328 28.6188 39.9605 28.6188 39.4184V34.7273H30.3766V39.2657C30.3766 39.5166 30.431 39.7403 30.54 39.9368C30.6512 40.1333 30.8063 40.2872 31.0051 40.3985C31.204 40.5097 31.4348 40.5654 31.6976 40.5654C31.9604 40.5654 32.19 40.5097 32.3865 40.3985C32.5854 40.2872 32.7405 40.1333 32.8517 39.9368C32.963 39.7403 33.0186 39.5166 33.0186 39.2657V34.7273ZM42.4762 37.3622H40.7006C40.677 37.18 40.6284 37.0154 40.555 36.8686C40.4817 36.7219 40.3846 36.5964 40.2638 36.4922C40.1431 36.3881 39.9999 36.3087 39.8342 36.2543C39.6708 36.1975 39.4897 36.1691 39.2908 36.1691C38.9381 36.1691 38.6339 36.2555 38.3782 36.4283C38.1249 36.6011 37.9296 36.8509 37.7923 37.1776C37.6573 37.5043 37.5898 37.8997 37.5898 38.3637C37.5898 38.8466 37.6585 39.2515 37.7958 39.5782C37.9355 39.9025 38.1308 40.1475 38.3817 40.3132C38.6351 40.4766 38.9345 40.5583 39.2802 40.5583C39.4743 40.5583 39.6507 40.5334 39.8093 40.4837C39.9703 40.434 40.1112 40.3618 40.2319 40.2671C40.355 40.17 40.4556 40.0528 40.5337 39.9155C40.6142 39.7758 40.6699 39.6184 40.7006 39.4432L42.4762 39.4539C42.4454 39.7758 42.3519 40.0931 42.1957 40.4056C42.0418 40.7181 41.8299 41.0033 41.56 41.2614C41.2901 41.5171 40.9611 41.7207 40.5728 41.8722C40.1869 42.0237 39.7442 42.0995 39.2447 42.0995C38.5865 42.0995 37.997 41.955 37.4762 41.6662C36.9577 41.375 36.5482 40.9513 36.2475 40.3949C35.9469 39.8386 35.7965 39.1615 35.7965 38.3637C35.7965 37.5635 35.9492 36.8852 36.2546 36.3289C36.56 35.7725 36.9731 35.3499 37.494 35.0611C38.0148 34.7723 38.5984 34.6279 39.2447 34.6279C39.685 34.6279 40.0922 34.6894 40.4663 34.8125C40.8403 34.9333 41.1694 35.1108 41.4535 35.3452C41.7376 35.5772 41.9684 35.8625 42.146 36.201C42.3235 36.5396 42.4336 36.9266 42.4762 37.3622Z" fill="#490643"/>
</svg>
